<svg width="16" height="16" viewBox="0 0 16 16" xmlns="http://www.w3.org/2000/svg"><path d="M12.763 3.237a.803.803 0 0 1 .237.592.803.803 0 0 1-.237.592L9.184 8l3.58 3.579a.803.803 0 0 1 .236.592.803.803 0 0 1-.237.592.803.803 0 0 1-.592.237.803.803 0 0 1-.592-.237L8 9.184l-3.579 3.58A.803.803 0 0 1 3.83 13a.803.803 0 0 1-.592-.237.803.803 0 0 1-.237-.592c0-.237.079-.434.237-.592L6.816 8l-3.58-3.579A.803.803 0 0 1 3 3.83c0-.237.079-.434.237-.592A.803.803 0 0 1 3.829 3c.237 0 .434.079.592.237L8 6.816l3.579-3.58A.803.803 0 0 1 12.17 3c.237 0 .434.079.592.237z" fill="#9B9B9B" fill-rule="evenodd"/></svg>