<svg width="22" height="22" viewBox="0 0 22 22" xmlns="http://www.w3.org/2000/svg"><path d="M12.084 12.084v-6.61H9.916v6.61h2.168zm0 4.442v-2.22H9.916v2.22h2.168zM11 0c2.01 0 3.87.502 5.58 1.507 1.656.952 2.96 2.257 3.913 3.914C21.498 7.13 22 8.99 22 11c0 2.01-.502 3.87-1.507 5.58-.952 1.656-2.257 2.96-3.914 3.913C14.87 21.498 13.01 22 11 22c-2.01 0-3.87-.502-5.58-1.507-1.656-.97-2.96-2.283-3.913-3.94C.502 14.843 0 12.993 0 11c0-1.992.502-3.843 1.507-5.553.97-1.657 2.283-2.97 3.94-3.94C7.157.502 9.007 0 11 0z" fill="#FE5F55" fill-rule="evenodd"/></svg>