<svg xmlns="http://www.w3.org/2000/svg" width="50" height="50" viewBox="0 0 128 128" xmlns:v="https://vecta.io/nano"><g><g fill="#fff"><path d="M59.6 0h8v40h-8V0z"/><path d="M92.189 6.374l6.928 4-20 34.641-6.928-4 20-34.641zm25.037 21.815l4 6.928-34.641 20-4-6.928 34.641-20zM128 59.6v8H88v-8h40zm-6.374 32.589l-4 6.928-34.641-20 4-6.928 34.641 20z" fill-opacity=".2"/><path d="M99.811 117.226l-6.928 4-20-34.641 6.928-4 20 34.641z" fill-opacity=".3"/><path d="M68.4 128h-8V88h8v40z" fill-opacity=".4"/><path d="M35.811 121.626l-6.928-4 20-34.641 6.928 4-20 34.641z" fill-opacity=".5"/><path d="M10.774 99.811l-4-6.928 34.641-20 4 6.928-34.641 20z" fill-opacity=".6"/><path d="M0 68.4v-8h40v8H0z" fill-opacity=".7"/><path d="M6.374 35.811l4-6.928 34.641 20-4 6.928-34.641-20z" fill-opacity=".8"/><path d="M28.189 10.774l6.928-4 20 34.641-6.928 4-20-34.641z" fill-opacity=".9"/></g><animateTransform attributeName="transform" type="rotate" values="0 64 64;30 64 64;60 64 64;90 64 64;120 64 64;150 64 64;180 64 64;210 64 64;240 64 64;270 64 64;300 64 64;330 64 64" calcMode="discrete" dur="840ms" repeatCount="indefinite"/></g></svg>