<svg xmlns="http://www.w3.org/2000/svg" viewBox="0 0 153.25 185.89047" width="100%" height="100%" preserveAspectRatio="xMidYMid">
  <title>
    SM
  </title>
  <g id="281872dc-47d0-4e10-964d-db7bb28bd375" data-name="Warstwa 2">
    <g id="0257bf58-18c1-43d1-a68b-65e92cbf2290" data-name="Warstwa 1">
      <g>
        <polygon points="33 93.251 32.986 161.708 54.738 173.708 54.75 81.251 21.75 63.251 21.75 0.001 0 0.001 0 75.251 33 93.251" style="fill: #fff"/>
        <polygon points="54.75 67.251 33 55.251 33 0.001 54.75 0.001 54.75 67.251" style="fill: #fff"/>
        <polygon points="21.75 155.501 0 143.501 0 88.251 21.75 100.251 21.75 155.501" style="fill: #fff"/>
        <polygon points="66 0 66 0.001 66 0.001 66 179.921 76.82 185.89 87.75 179.921 87.75 21.75 98.901 21.75 98.901 173.708 120.651 161.708 120.651 21.75 131.5 21.75 131.5 155.501 153.25 143.501 153.25 21.75 153.25 0.001 153.25 0 66 0" style="fill: #fff"/>
      </g>
    </g>
  </g>
</svg>
