<svg width="64" height="65" viewBox="0 0 64 65" fill="none" xmlns="http://www.w3.org/2000/svg">
    <g clip-path="url(#clip0_6_5561663)">
        <path d="M48.0116 33.837L25.0949 50.2433C24.9189 50.3691 24.7137 50.4336 24.5085 50.4336C24.3418 50.4336 24.1741 50.392 24.022 50.3067C23.6803 50.1175 23.4668 49.7456 23.4668 49.3398V16.5272C23.4668 16.1215 23.6803 15.7496 24.022 15.5604C24.3637 15.37 24.7762 15.3963 25.096 15.6238L48.0126 32.0301C48.296 32.2335 48.4668 32.5715 48.4668 32.9335C48.4668 33.2956 48.296 33.6335 48.0116 33.837Z" fill="white"/>
        <path d="M47.7205 33.4304L47.7207 33.4303C47.8691 33.3242 47.9668 33.1401 47.9668 32.9335C47.9668 32.7271 47.8692 32.5429 47.7216 32.4367L47.7205 33.4304ZM47.7205 33.4304L24.8042 49.8365L47.7205 33.4304ZM24.8061 16.0312L47.721 32.4362L24.8039 49.8367C24.712 49.9022 24.6084 49.9336 24.5085 49.9336C24.425 49.9336 24.3418 49.9128 24.2666 49.8706L24.2642 49.8693C24.0892 49.7724 23.9668 49.5726 23.9668 49.3398V16.5272C23.9668 16.2945 24.0892 16.0947 24.2642 15.9978L24.2642 15.9978L24.2653 15.9972C24.4347 15.9028 24.6397 15.9131 24.8056 16.0309C24.8058 16.031 24.806 16.0311 24.8061 16.0312Z" stroke="white" stroke-opacity="0.7"/>
    </g>
    <defs>
        <clipPath id="clip0_6_5561663">
            <rect width="64" height="64" fill="white" transform="translate(0 0.5)"/>
        </clipPath>
    </defs>
</svg>
